#!OML:ASF E:/inclinewalkrobotboard/Project1/Captureday1/Session1/subject1.ASF
:FULLY-SPECIFIED
:DEGREES
126
root 0 0 0 1.1053533705179661 -3.705065346089667 1.8136411625108741
lowerback 11.910291737292678 0.8625508569188849 -0.02872051245192969
upperback -4.2254256043763165 1.097061272620624 -0.5454423682846705
thorax -11.288849742385166 0.5010616807055325 -0.8073407748073207
lowerneck -5.816765546447495 1.4753167949008104 4.567777819831495
upperneck 18.088254172088572 2.931249174096135 -8.332119176819813
head 6.6137189764833275 1.0654467492833786 -3.2224218038772006
rclavicle 1.4542906830490297E-15 -1.2116206941323021E-15
rhumerus 19.414472126422822 14.032178167634594 -48.3773622247434
rradius 71.74079052439335
rwrist 26.665895559161463
rhand -34.6167715511735 -56.259688349651455
rfingers 7.125020000000028
rthumb -7.758772598066379 -86.19081949195345
lclavicle 1.24790899891113E-15 -1.892832239417853E-15
lhumerus 20.742321414856917 -12.30795010247883 44.86752641335275
lradius 69.75489874881917
lwrist -22.66574471546162
lhand -44.489688901151354 -69.25794575459344
lfingers 7.12502000000002
lthumb -17.316793702108978 -39.981532147846245
rfemur -24.645122295816453 -2.097064488663909 17.181883405524854
rtibia 53.83662242706069
rfoot -29.0957280332379 -17.02951718434243
rtoes -18.31815312315845
lfemur -26.245284588407326 2.5193500767363393 -18.018316381432225
ltibia 54.19994870091318
lfoot -31.063369226341422 -3.447440375602683
ltoes -20.15589857686157
127
root 0 0 0 1.10515109971548 -3.705211598285316 1.8136591004196172
lowerback 11.91029181008898 0.862526503382065 -0.028685124583998634
upperback -4.2253168332099005 1.0970402510953008 -0.5454100372162155
thorax -11.288727402546515 0.5010497544065903 -0.8073179230218045
lowerneck -5.816089556738195 1.4752096825987695 4.567905035362198
upperneck 18.087871080487584 2.9311272874992955 -8.332466435476025
head 6.61348250868468 1.0653914539678984 -3.2225658664641426
rclavicle 1.4574075061131131E-15 -1.211653428039375E-15
rhumerus 19.415146925081473 14.03290996053724 -48.37719752840913
rradius 71.74119700385351
rwrist 26.66565118435856
rhand -34.61591049443 -56.25853544821268
rfingers 7.125020000000028
rthumb -7.757935669473907 -86.1896851287823
lclavicle 1.2506700083669503E-15 -1.893125735335977E-15
lhumerus 20.742363935207234 -12.308294605190587 44.86719103792541
lradius 69.75502280969879
lwrist -22.6657782210101
lhand -44.48939343583291 -69.25630568513722
lfingers 7.12502000000002
lthumb -17.31650673827801 -39.9799297129437
rfemur -24.64507284708327 -2.097047614313706 17.18190556386232
rtibia 53.836678146764775
rfoot -29.095754551016736 -17.029460801214004
rtoes -18.318206163786925
lfemur -26.24511597316307 2.51944797024164 -18.01830904920071
ltibia 54.19998499658484
lfoot -31.063310078654553 -3.44737313399953
ltoes -20.15647455854156
128
root 0 0 0 1.1058807008814615 -3.70467847036793 1.8135877624472438
lowerback 11.910280466851548 0.8626134335792329 -0.028801055603176334
upperback -4.225700389713994 1.097117064823886 -0.5455248255434988
thorax -11.289151632765565 0.5010925351760774 -0.8074039718199353
lowerneck -5.818448964817028 1.4755660463194784 4.5674541211223225
upperneck 18.089179303035902 2.9315259031942182 -8.331235535284083
head 6.614298183601549 1.0655730941411046 -3.2220589567200473
rclavicle 1.461898476786107E-15 -1.2193975307302352E-15
rhumerus 19.413614195324968 14.031860997074835 -48.37993745717525
rradius 71.74070883483947
rwrist 26.664445560994025
rhand -34.62026155597388 -56.26331656824539
rfingers 7.125020000000028
rthumb -7.762094048925757 -86.19440819948673
lclavicle 1.2738922259708745E-15 -1.9045494832188537E-15
lhumerus 20.741393268112333 -12.307062374692222 44.86745674653666
lradius 69.75434377831255
lwrist -22.66569996759872
lhand -44.489284955274925 -69.25920083597762
lfingers 7.12502000000002
lthumb -17.31646290402347 -39.983327504688106
rfemur -24.644711278879328 -2.097330018019489 17.182577835548713
rtibia 53.83763162506805
rfoot -29.096915226510784 -17.030535955614347
rtoes -18.318572956217295
lfemur -26.24758054370661 2.5186188328288055 -18.01858487864203
ltibia 54.2010386971508
lfoot -31.064653993726267 -3.449138849985658
ltoes -20.151074060849005
129
root 0 0 0 1.1055705431632843 -3.704912840852159 1.8136205893646729
lowerback 11.910287995938006 0.8625772820998068 -0.028757566706143683
upperback -4.225545960696565 1.0970841489209662 -0.5454773595302014
thorax -11.288982892786148 0.5010745934761616 -0.8073662744281346
lowerneck -5.817489911832142 1.4754345645508984 4.567641968147834
upperneck 18.08866741491756 2.9313841415182833 -8.331745142235588
head 6.613973100942867 1.065508019317502 -3.222266413939081
rclavicle 1.4481133213276109E-15 -1.2108803303009088E-15
rhumerus 19.414017229853137 14.031637951493096 -48.377321405012914
rradius 71.74057042621956
rwrist 26.666139049372262
rhand -34.617403043271835 -56.260640996036585
rfingers 7.125020000000028
rthumb -7.7593826306674485 -86.19181402629727
lclavicle 1.2430769265758408E-15 -1.8916586312734155E-15
lhumerus 20.742241452118407 -12.307561738779391 44.867960072727925
lradius 69.75477356425749
lwrist -22.665676988178525
lhand -44.48998522721287 -69.25949117244969
lfingers 7.12502000000002
lthumb -17.317073698862444 -39.9829569381224
rfemur -24.645065253095286 -2.0970891346707923 17.181889134287037
rtibia 53.83671054560993
rfoot -29.09572416704811 -17.029556889826157
rtoes -18.318181916526555
lfemur -26.245523771161274 2.5192504018652553 -18.018322768522463
ltibia 54.20011463272335
lfoot -31.06349925934807 -3.447535136499211
ltoes -20.15512500199508
